<svg xmlns="http://www.w3.org/2000/svg" viewBox="0 0 800 500" preserveAspectRatio="xMidYMid slice"><defs><linearGradient id="w" x1="0" y1="0" x2="0" y2="1"><stop offset="0" stop-color="#E6EEF8"/><stop offset="1" stop-color="#C9D8EA"/></linearGradient><linearGradient id="f" x1="0" y1="0" x2="0" y2="1"><stop offset="0" stop-color="#B9C7D9"/><stop offset="1" stop-color="#8FA3BC"/></linearGradient></defs><rect width="800" height="500" fill="url(#w)"/><rect y="390.0" width="800" height="110.0" fill="url(#f)"/><rect x="166.0" y="66.0" width="448.0" height="258.0" rx="3" fill="#0A1222"/><defs><linearGradient id="g170_70_0" x1="0" y1="0" x2="1" y2="1"><stop offset="0" stop-color="#0B3FA8"/><stop offset="1" stop-color="#0E9AA7"/></linearGradient></defs><rect x="170.0" y="70.0" width="440.0" height="250.0" fill="url(#g170_70_0)"/><circle cx="486.8" cy="145.0" r="35.0" fill="#7FE0D0" opacity=".9"/><rect x="196.4" y="250.0" width="30.800000000000004" height="70.0" fill="#fff" opacity=".22"/><rect x="240.4" y="190.0" width="30.800000000000004" height="130.0" fill="#fff" opacity=".22"/><rect x="284.4" y="130.0" width="30.800000000000004" height="190.0" fill="#fff" opacity=".22"/><rect x="328.4" y="220.0" width="30.800000000000004" height="100.0" fill="#fff" opacity=".22"/><rect x="372.4" y="160.0" width="30.800000000000004" height="160.0" fill="#fff" opacity=".22"/><rect x="416.40000000000003" y="250.0" width="30.800000000000004" height="70.0" fill="#fff" opacity=".22"/><rect x="460.4000000000001" y="190.0" width="30.800000000000004" height="130.0" fill="#fff" opacity=".22"/><rect x="504.4" y="130.0" width="30.800000000000004" height="190.0" fill="#fff" opacity=".22"/><rect x="548.4000000000001" y="220.0" width="30.800000000000004" height="100.0" fill="#fff" opacity=".22"/><g stroke="#E9A23B" stroke-width="5.0"><line x1="650.0" y1="100.0" x2="610.0" y2="430.0"/><line x1="720.0" y1="100.0" x2="700.0" y2="430.0"/><line x1="646.0" y1="150.0" x2="721.0" y2="150.0"/><line x1="639.0" y1="200.0" x2="717.0" y2="200.0"/><line x1="632.0" y1="250.0" x2="713.0" y2="250.0"/><line x1="625.0" y1="300.00000000000006" x2="709.0" y2="300.00000000000006"/><line x1="618.0" y1="350.0" x2="705.0" y2="350.0"/><line x1="611.0" y1="400.0" x2="701.0" y2="400.0"/></g><circle cx="680.0" cy="170.0" r="13.0" fill="#F0C9A0"/><rect x="664.0" y="195.0" width="32.0" height="110.0" rx="8.0" fill="#0758D9"/></svg>